<svg
   xmlns="http://www.w3.org/2000/svg"
   width="20"
   height="21.264"
   version="1.1"
   viewBox="0 0 5.292 5.626"
>
   <g transform="translate(24.503 -62.677)">
      <path
         fill="#1a1a1a"
         strokeLinecap="round"
         strokeLinejoin="round"
         strokeWidth="0.102"
         d="M-21.857 62.677a.223.186 0 00-.163.059l-1.211 1.076-1.211 1.076a.223.186 0 00.162.313h.167v2.579c0 .287.284.523.627.523h.98a.223.186 0 00.223-.186V66.6c0-.087.077-.15.18-.15h.49c.105 0 .181.063.181.15v1.516a.223.186 0 00.223.186h.98c.344 0 .627-.236.627-.523V65.2h.167a.223.186 0 00.163-.313l-1.211-1.076-1.212-1.076a.223.186 0 00-.162-.059z"
         color="#000"
      ></path>
   </g>
</svg>